<svg xmlns="http://www.w3.org/2000/svg" viewBox="0 0 293.61 552"><defs><style>.cls-1{fill:#fff;}</style></defs><title>Asset 3</title><g id="Layer_2" data-name="Layer 2"><g id="Layer_1-2" data-name="Layer 1"><path class="cls-1" d="M274.2,376c-17.67,28.85-43.88,58.52-76,70C444.25,279,46.35,115.49,139.2,0,119.87,130.72,362.48,217.5,274.2,376Z"/><path class="cls-1" d="M197.2,207c-15.52-19.79-34.54-38.69-31-67-8.64,9.05-18.54,28.22-12.45,45a25.76,25.76,0,0,0-14.55-10c-24.67,32.08-58.11,72.56-2,99-4.28,5.7-9.76,14.68-17,19-6.4-23.33-63.14-61.27-35-91,.46,5.87,4.64,13.43,7,21,13.75-19,26.35-36,27-64,22.73,23.58,32.45-23.5,24-41.1-10.48-24.09-32.9-25.7-29-66.9-45.23,57.24,19.37,64.46,20,103-27.41-1.34-38.45-37.71-47-60-7.35,17-5.17,19.67-20.71,21-49.89,12.41-86.06,79.89-54.9,134.57,35.05,48,69,53.69,64.61,113.41,47.48-85.87-94.5-119.28-62.74-185.83C22.88,153.91,44.31,133.46,60.2,137c-13,27.44,8.18,43.84,21,60-38.48,91.4,16.9,64,26,119,46.57-36.69,21.93-53.9,72.33-17.07C199.59,282,214.21,236.45,197.2,207Zm-120-90c1.13,33.22,39.44,43.38,26,77C87.58,159.67,52,154.88,77.2,117Zm71,136c-22-10.2-36.75-31.76-19-56C144.94,204.7,150.82,229.63,148.2,253Zm40,23c-8-5.69-18-15.91-31-18,10.48-20.17,9.18-50.92-3.45-73C169.91,222.78,193.8,229.49,188.2,276Z"/><path class="cls-1" d="M60.2,219c-1.73,11.34-5.63,19-13,26-1-17.66-17.7-16.47-16.27-23.05,22.6-31.36-14-28.56-7.15-37.71,3.13-5.49,9.36-16.39,10.35-18.11,8.94,1.7,16.54,11.26,15.73,18.06C44.73,209.31,44.31,204.71,60.2,219Z"/><path class="cls-1" d="M252.2,275c-7.86-21.14-29.21-22-28-52-34.68,46.71,14.33,57.82,18,85-39.36-30.83-60.72-1.53-79,30-13.86-8.11-18-32.44-21-45-31.39,66.43,24.33,50.74,22,94-7.44,12.75-5.7,10.94-10.26,6.36L104,335.1c-3.64,2-5.57-26.79-12.8-33.1-13.84,59.54,31.78,84.1,52,109l2-3c-22.08,23.22-75.42,13.3-82-20-2.64,18.71,35.54,42.58,54.13,46.69,14.85,5.66,35.58-17,35.87-17.69-.69,3.9-3.95,5.33.84,8.52C194.76,467,193.51,507.05,172.2,552c41.87-59,32.34-104-11-147.08,20.59-53.73-.24-57.06,7.56-66.47,17.39-22.34,46.05-31.2,63.41-1.45C243.29,323.51,260,295.27,252.2,275Z"/><path class="cls-1" d="M154.2,416c.33-1,.67-2,1-3C155,414.47,155.61,414,154.2,416Z"/><path class="cls-1" d="M155.2,400c.33-1,.67-2,1-3C156,398.47,156.61,398,155.2,400Z"/><path class="cls-1" d="M158.2,410c.33-1,.67-2,1-3C159,408.47,159.61,408,158.2,410Z"/><path class="cls-1" d="M145.2,408c.07,1.8,1.14,1.23-2,3Z"/><path class="cls-1" d="M155.2,413c-.22,1.47.41,1-1,3C154.53,415,154.87,414,155.2,413Z"/><path class="cls-1" d="M156.2,397c-.22,1.47.41,1-1,3C155.53,399,155.87,398,156.2,397Z"/><path class="cls-1" d="M158.2,410c.33-1,.67-2,1-3C159,408.47,159.61,408,158.2,410Z"/><path class="cls-1" d="M153.2,255h0Z"/><path class="cls-1" d="M218.2,353c-5.58,8.89-8.18,22.24-17,28-3-16-2.92-18.93-15-27.5C194.67,322.73,210.19,329.89,218.2,353Z"/><path class="cls-1" d="M245.2,373c8.13,30.23-34.94,45.71-65,45,6-5.13,70.31-23.63,50.17-30.16-40.93,4.25,7.2-37.72,17.83-41.84C251.53,367.45,200.37,372.15,245.2,373Z"/><path class="cls-1" d="M155.2,400c.33-1,.67-2,1-3C156,398.47,156.61,398,155.2,400Z"/><path class="cls-1" d="M160.2,405c.33.67.67,1.33,1,2C160.87,406.33,160.53,405.67,160.2,405Z"/><path class="cls-1" d="M158.2,410c.33-1,.67-2,1-3C159,408.47,159.61,408,158.2,410Z"/><path class="cls-1" d="M143.2,411l2-3C145.27,409.8,146.34,409.23,143.2,411Z"/><path class="cls-1" d="M154.2,416c.33-1,.67-2,1-3C155,414.47,155.61,414,154.2,416Z"/></g></g></svg>